#include "../notes.h"

#define SIXTEENTH 71
#define NumNotas 213

short int tune[] = {
NOTE_F5, NOTE_F5, NOTE_F5, NOTE_E5, NOTE_D5, NOTE_E5, NOTE_E5, NOTE_E5, NOTE_D5, NOTE_C5, NOTE_E5, NOTE_E5, NOTE_E5, NOTE_E5, NOTE_E5, NOTE_E5, NOTE_E5, NOTE_E5, NOTE_D5, NOTE_E5, NOTE_F5, NOTE_F5, NOTE_F5, NOTE_E5, NOTE_D5, NOTE_E5, NOTE_E5, NOTE_E5, NOTE_G5, NOTE_F5, NOTE_G5, NOTE_F5, NOTE_E5, NOTE_E5, NOTE_E5, NOTE_E5, NOTE_E5, NOTE_E5, NOTE_E5, NOTE_E5, NOTE_F5, NOTE_G5, NOTE_F5, NOTE_F5, NOTE_F5, NOTE_E5, NOTE_D5, NOTE_E5, NOTE_E5, NOTE_E5, NOTE_D5, NOTE_C5, NOTE_E5, NOTE_E5, NOTE_E5, NOTE_E5, NOTE_E5, NOTE_E5, NOTE_E5, NOTE_E5, NOTE_D5, NOTE_E5, NOTE_F5, NOTE_F5, NOTE_F5, NOTE_E5, NOTE_D5, NOTE_E5, NOTE_E5, NOTE_E5, NOTE_G5, NOTE_F5, NOTE_G5, NOTE_F5, NOTE_E5, NOTE_E5, NOTE_E5, NOTE_E5, NOTE_E5, NOTE_E5, NOTE_E5, NOTE_E5, NOTE_F5, NOTE_G5, NOTE_F5, NOTE_G5, NOTE_A5, NOTE_A5, NOTE_A5, NOTE_A5, NOTE_C6, NOTE_C6, NOTE_G5, NOTE_G5, NOTE_F5, NOTE_G5, NOTE_A5, NOTE_A5, NOTE_A5, NOTE_G5, NOTE_F5, NOTE_G5, NOTE_G5, NOTE_F5, NOTE_E5, NOTE_A5, NOTE_A5, NOTE_G5, NOTE_F5, NOTE_E5, NOTE_F5, NOTE_G5, NOTE_F5, NOTE_F5, NOTE_E5, NOTE_D5, NOTE_E5, NOTE_E5, NOTE_D5, NOTE_C5, NOTE_E5, NOTE_F5, NOTE_G5, NOTE_A5, NOTE_A5, NOTE_G5, NOTE_F5, NOTE_G5, NOTE_G5, NOTE_F5, NOTE_E5, NOTE_G5, NOTE_G5, NOTE_F5, NOTE_E5, NOTE_D5, NOTE_D5, NOTE_E5, NOTE_D5, NOTE_D5, NOTE_E5, NOTE_F5, NOTE_E5, NOTE_E5, NOTE_D5, NOTE_C5, NOTE_D5, NOTE_A5, NOTE_A5, NOTE_G5, NOTE_F5, NOTE_G5, NOTE_G5, NOTE_F5, NOTE_E5, NOTE_A5, NOTE_A5, NOTE_G5, NOTE_F5, NOTE_E5, NOTE_F5, NOTE_G5, NOTE_F5, NOTE_F5, NOTE_E5, NOTE_D5, NOTE_E5, NOTE_E5, NOTE_D5, NOTE_C5, NOTE_E5, NOTE_F5, NOTE_G5, NOTE_A5, NOTE_A5, NOTE_G5, NOTE_F5, NOTE_G5, NOTE_G5, NOTE_F5, NOTE_E5, NOTE_G5, NOTE_G5, NOTE_F5, NOTE_E5, NOTE_D5, NOTE_D5, NOTE_E5, NOTE_D5, NOTE_D5, NOTE_E5, NOTE_F5, NOTE_E5, NOTE_E5, NOTE_D5, NOTE_C5, NOTE_F5, NOTE_F5, NOTE_G5, NOTE_A5, NOTE_G5, NOTE_F5, NOTE_E5, NOTE_D5, NOTE_D5, NOTE_E5, NOTE_F5, NOTE_E5, NOTE_E5, NOTE_D5, NOTE_C5, NOTE_D5, NOTE_E5
};

short int duration[] = {
QUARTER, EIGHTH, QUARTER, EIGHTH, QUARTER, QUARTER, EIGHTH, QUARTER, EIGHTH, QUARTER, QUARTER, EIGHTH, QUARTER, EIGHTH, QUARTER, EIGHTH, QUARTER, EIGHTH, QUARTER, QUARTER, QUARTER, EIGHTH, QUARTER, EIGHTH, QUARTER, QUARTER, EIGHTH, EIGHTH, QUARTER, QUARTER/3, QUARTER/3, QUARTER/3, QUARTER, EIGHTH, QUARTER, EIGHTH, QUARTER, EIGHTH, QUARTER, EIGHTH, QUARTER, QUARTER, QUARTER, EIGHTH, QUARTER, EIGHTH, QUARTER, QUARTER, EIGHTH, QUARTER, EIGHTH, QUARTER, QUARTER, EIGHTH, QUARTER, EIGHTH, QUARTER, EIGHTH, QUARTER, EIGHTH, QUARTER, QUARTER, QUARTER, EIGHTH, QUARTER, EIGHTH, QUARTER, QUARTER, EIGHTH, EIGHTH, QUARTER, QUARTER/3, QUARTER/3, QUARTER/3, QUARTER, EIGHTH, QUARTER, EIGHTH, QUARTER, EIGHTH, QUARTER, EIGHTH, QUARTER, QUARTER, WHOLE, WHOLE, WHOLE+WHOLE, WHOLE, HALF+QUARTER, EIGHTH, EIGHTH, WHOLE+WHOLE, WHOLE+QUARTER, QUARTER, QUARTER, QUARTER, WHOLE+WHOLE, QUARTER, QUARTER, QUARTER, QUARTER, QUARTER, QUARTER, QUARTER, QUARTER, QUARTER, QUARTER, QUARTER, QUARTER, HALF, QUARTER, QUARTER, QUARTER, QUARTER, QUARTER, QUARTER, QUARTER, QUARTER, EIGHTH, QUARTER+EIGHTH, WHOLE, HALF, HALF, QUARTER, QUARTER, QUARTER, QUARTER, QUARTER, QUARTER, QUARTER, QUARTER, QUARTER, QUARTER, QUARTER, QUARTER, HALF, QUARTER, QUARTER, QUARTER, QUARTER, QUARTER, QUARTER, QUARTER, QUARTER, QUARTER, QUARTER, WHOLE+WHOLE, QUARTER, QUARTER, QUARTER, QUARTER, QUARTER, QUARTER, QUARTER, QUARTER, QUARTER, QUARTER, QUARTER, QUARTER, HALF, QUARTER, QUARTER, QUARTER, QUARTER, QUARTER, QUARTER, QUARTER, QUARTER, EIGHTH, QUARTER+EIGHTH, WHOLE, HALF, HALF, QUARTER, QUARTER, QUARTER, QUARTER, QUARTER, QUARTER, QUARTER, QUARTER, QUARTER, QUARTER, QUARTER, QUARTER, HALF, QUARTER, QUARTER, QUARTER, QUARTER, QUARTER, QUARTER, QUARTER, QUARTER, QUARTER, QUARTER, QUARTER, QUARTER, QUARTER, QUARTER, HALF, QUARTER, QUARTER, QUARTER, QUARTER, QUARTER, QUARTER, QUARTER, QUARTER, QUARTER, QUARTER, WHOLE+WHOLE, WHOLE
};
