#include "../notes.h"

#define SIXTEENTH 83
#define NumNotas 180

short int tune[] = {
NOTE_G4, NOTE_A4, NOTE_B4, NOTE_D5, NOTE_G4, NOTE_FS4, NOTE_E5, NOTE_D5, NOTE_E5, NOTE_D5, NOTE_B4, NOTE_C5, NOTE_B4, NOTE_A4, NOTE_B4, NO_NOTE, NOTE_G5, NOTE_G5, NOTE_FS5, NOTE_D5, NOTE_E5, NO_NOTE, NOTE_G4, NOTE_FS4, NOTE_G4, NOTE_A4, NOTE_E4, NOTE_D4, NOTE_FS4, NOTE_G4, NOTE_FS4, NOTE_G4, NOTE_A4, NOTE_E4, NOTE_E4, NOTE_G4, NOTE_D5, NOTE_G4, NO_NOTE, NO_NOTE, NOTE_FS4, NOTE_E4, NOTE_D4, NOTE_G4, NOTE_FS4, NOTE_G4, NOTE_A4, NOTE_E4, NOTE_D4, NOTE_FS4, NOTE_G4, NOTE_FS4, NOTE_G4, NOTE_A4, NOTE_D5, NOTE_D5, NOTE_G4, NOTE_G4, NOTE_A4, NOTE_G4, NO_NOTE, NO_NOTE, NOTE_FS4, NOTE_G4, NOTE_A4, NOTE_B4, NOTE_G4, NOTE_A4, NOTE_FS4, NOTE_D4, NOTE_E4, NOTE_G4, NOTE_C4, NOTE_G4, NOTE_A4, NOTE_G4, NOTE_A4, NOTE_B4, NOTE_C5, NOTE_A4, NOTE_G4, NOTE_A4, NOTE_G4, NOTE_A4, NOTE_D5, NOTE_D5, NOTE_C5, NOTE_A4, NOTE_B4, NOTE_G4, NOTE_A4, NO_NOTE, NOTE_G4, NOTE_A4, NOTE_B4, NOTE_D5, NOTE_G4, NOTE_FS4, NOTE_E5, NOTE_E5, NOTE_D5, NOTE_B4, NOTE_C5, NOTE_B4, NOTE_A4, NOTE_D5, NOTE_B4, NOTE_A4, NOTE_B4, NOTE_A4, NOTE_B4, NOTE_A4, NOTE_B4, NOTE_A4, NOTE_B4, NOTE_C5, NOTE_B4, NOTE_E5, NOTE_A4, NOTE_G4, NOTE_A4, NOTE_B4, NOTE_D5, NOTE_G4, NOTE_FS4, NOTE_E5, NOTE_E5, NOTE_D5, NOTE_B4, NOTE_C5, NOTE_B4, NOTE_A4, NOTE_D5, NOTE_B4, NOTE_A4, NOTE_B4, NOTE_A4, NOTE_B4, NOTE_A4, NOTE_B4, NOTE_B4, NOTE_E5, NOTE_D5, NOTE_C5, NOTE_FS5, NOTE_A4, NOTE_G4, NOTE_A4, NOTE_G4, NOTE_D5, NOTE_B4, NOTE_C5, NOTE_B4, NOTE_A4, NOTE_A4, NOTE_B4, NOTE_E4, NOTE_FS4, NOTE_G4, NOTE_B4, NOTE_B4, NOTE_B4, NOTE_B4, NOTE_A4, NOTE_G4, NOTE_D4, NO_NOTE, NOTE_A4, NOTE_G4, NOTE_FS4, NOTE_D4, NO_NOTE, NOTE_E4, NOTE_E4, NO_NOTE, NOTE_E4, NOTE_E4, NO_NOTE, NOTE_E4, NOTE_E4
};

short int duration[] = {
EIGHTH, EIGHTH, QUARTER, HALF+QUARTER, QUARTER, HALF, QUARTER+EIGHTH, SIXTEENTH, SIXTEENTH, HALF+QUARTER, EIGHTH, QUARTER, QUARTER, QUARTER, QUARTER, EIGHTH, HALF+QUARTER, QUARTER, HALF, HALF, WHOLE, WHOLE, EIGHTH, QUARTER, QUARTER, QUARTER, EIGHTH+HALF, QUARTER, QUARTER, EIGHTH, QUARTER, QUARTER, QUARTER, EIGHTH+HALF, QUARTER, QUARTER, QUARTER+EIGHTH, EIGHTH+HALF, WHOLE, HALF, HALF, HALF, HALF, EIGHTH, QUARTER, QUARTER, QUARTER, EIGHTH+HALF, QUARTER, QUARTER, EIGHTH, QUARTER, QUARTER, QUARTER, EIGHTH+QUARTER, QUARTER, QUARTER, QUARTER, QUARTER+EIGHTH, EIGHTH+HALF, WHOLE, HALF, HALF, HALF, HALF, HALF+QUARTER, QUARTER, QUARTER+EIGHTH, QUARTER+EIGHTH, QUARTER, QUARTER+EIGHTH, HALF+EIGHTH, QUARTER+EIGHTH, HALF+EIGHTH, EIGHTH, QUARTER, QUARTER, QUARTER, EIGHTH+HALF, QUARTER, QUARTER, EIGHTH, QUARTER, QUARTER, QUARTER, EIGHTH, HALF, HALF, QUARTER+EIGHTH, QUARTER+EIGHTH, QUARTER+EIGHTH, QUARTER+EIGHTH, EIGHTH, EIGHTH, QUARTER, HALF+QUARTER, QUARTER, HALF, QUARTER+EIGHTH, EIGHTH, HALF+QUARTER, EIGHTH, QUARTER, QUARTER, QUARTER, QUARTER, HALF, EIGHTH, QUARTER+EIGHTH, EIGHTH, QUARTER+EIGHTH, EIGHTH, QUARTER+EIGHTH, EIGHTH, QUARTER, EIGHTH, QUARTER, QUARTER, EIGHTH+HALF, EIGHTH, EIGHTH, QUARTER, HALF+QUARTER, QUARTER, HALF, QUARTER+EIGHTH, EIGHTH, HALF+QUARTER, EIGHTH, QUARTER, QUARTER, QUARTER, QUARTER, HALF, EIGHTH, QUARTER+EIGHTH, EIGHTH, QUARTER+EIGHTH, EIGHTH, QUARTER+EIGHTH, EIGHTH, QUARTER, EIGHTH, QUARTER, QUARTER, HALF, EIGHTH, EIGHTH, EIGHTH, EIGHTH, HALF+EIGHTH+QUARTER, QUARTER, QUARTER, QUARTER, EIGHTH, QUARTER, HALF, HALF, HALF, EIGHTH, QUARTER, QUARTER, QUARTER, EIGHTH, QUARTER, QUARTER, EIGHTH, QUARTER, EIGHTH, QUARTER, QUARTER, EIGHTH, EIGHTH, EIGHTH, EIGHTH, EIGHTH, EIGHTH, EIGHTH, EIGHTH, EIGHTH+WHOLE
};
