#include "../notes.h"

#define SIXTEENTH 82
#define NumNotas 431

short int tune[] = {
NOTE_GS5, NOTE_FS5, NOTE_B5, NOTE_GS5, NOTE_FS5, NOTE_E5, NOTE_FS5, NOTE_E5, NOTE_FS5, NOTE_FS5, NOTE_E5, NOTE_GS5, NOTE_FS5, NOTE_E5, NOTE_DS5, NOTE_E5, NOTE_FS5, NOTE_DS5, NOTE_GS5, NOTE_FS5, NOTE_B5, NOTE_GS5, NOTE_FS5, NOTE_E5, NOTE_FS5, NOTE_E5, NOTE_FS5, NOTE_FS5, NOTE_E5, NOTE_GS5, NOTE_FS5, NOTE_E5, NOTE_DS5, NOTE_E5, NOTE_FS5, NOTE_DS5, NOTE_CS4, NOTE_CS4, NOTE_DS4, NOTE_CS4, NOTE_DS4, NOTE_E4, NOTE_CS4, NOTE_CS4, NOTE_CS4, NOTE_DS4, NOTE_CS4, NOTE_DS4, NOTE_E4, NOTE_DS4, NOTE_CS4, NOTE_CS4, NOTE_DS4, NOTE_CS4, NOTE_DS4, NOTE_DS4, NOTE_FS4, NOTE_E4, NOTE_DS4, NOTE_E4, NOTE_FS3, NOTE_FS3, NOTE_CS4, NOTE_B3, NOTE_CS4, NOTE_DS4, NOTE_CS4, NOTE_FS3, NOTE_FS3, NOTE_CS4, NOTE_B3, NOTE_CS4, NOTE_DS4, NOTE_CS4, NOTE_FS3, NOTE_FS3, NOTE_CS4, NOTE_B3, NOTE_CS4, NOTE_CS4, NOTE_FS4, NOTE_E4, NOTE_DS4, NOTE_E4, NOTE_GS4, NOTE_GS4, NOTE_DS5, NOTE_CS5, NOTE_DS5, NOTE_E5, NOTE_C5, NOTE_GS4, NOTE_GS4, NOTE_DS5, NOTE_CS5, NOTE_DS5, NOTE_E5, NOTE_D5, NOTE_GS4, NOTE_GS4, NOTE_DS5, NOTE_CS5, NOTE_DS5, NOTE_E5, NOTE_FS5, NOTE_E5, NOTE_DS5, NOTE_E5, NOTE_FS4, NOTE_FS4, NOTE_CS5, NOTE_B4, NOTE_CS5, NOTE_DS5, NOTE_CS5, NOTE_FS4, NOTE_FS4, NOTE_CS5, NOTE_B4, NOTE_CS5, NOTE_DS5, NOTE_CS5, NOTE_GS4, NOTE_FS4, NOTE_CS5, NOTE_B4, NOTE_CS5, NOTE_CS5, NOTE_FS5, NOTE_E5, NOTE_DS5, NOTE_E5, NOTE_GS4, NOTE_GS4, NOTE_DS5, NOTE_CS5, NOTE_DS5, NOTE_E5, NOTE_CS5, NOTE_GS4, NOTE_GS4, NOTE_DS5, NOTE_CS5, NOTE_DS5, NOTE_E5, NOTE_DS5, NOTE_GS4, NOTE_GS4, NOTE_DS5, NOTE_CS5, NOTE_DS5, NOTE_E5, NOTE_FS5, NOTE_E5, NOTE_DS5, NOTE_E5, NOTE_FS4, NOTE_FS4, NOTE_CS5, NOTE_B4, NOTE_CS5, NOTE_DS5, NOTE_CS5, NOTE_FS4, NOTE_FS4, NOTE_CS5, NOTE_B4, NOTE_CS5, NOTE_DS5, NOTE_CS5, NOTE_GS4, NOTE_GS4, NOTE_CS5, NOTE_B4, NOTE_CS5, NOTE_CS5, NOTE_FS5, NOTE_E5, NOTE_DS5, NOTE_E5, NOTE_CS5, NOTE_CS5, NOTE_GS4, NOTE_GS5, NOTE_FS5, NOTE_GS4, NOTE_FS5, NOTE_E5, NOTE_DS5, NO_NOTE, NOTE_DS5, NOTE_E5, NOTE_CS5, NOTE_DS5, NOTE_DS5, NOTE_GS4, NOTE_FS5, NOTE_E5, NO_NOTE, NOTE_E5, NOTE_DS5, NOTE_CS5, NO_NOTE, NOTE_CS5, NOTE_B4, NOTE_FS5, NOTE_A5, NOTE_GS5, NOTE_FS5, NOTE_A5, NOTE_A5, NOTE_GS5, NOTE_E6, NOTE_DS6, NOTE_CS6, NOTE_FS6, NOTE_E6, NOTE_DS6, NOTE_E6, NOTE_DS6, NOTE_CS6, NOTE_DS6, NOTE_CS6, NOTE_B5, NOTE_GS5, NOTE_FS5, NOTE_B5, NOTE_GS5, NOTE_FS5, NOTE_E5, NOTE_FS5, NOTE_E5, NOTE_FS5, NOTE_FS5, NOTE_E5, NOTE_GS5, NOTE_FS5, NOTE_E5, NOTE_DS5, NOTE_E5, NOTE_FS5, NOTE_DS5, NOTE_B4, NOTE_CS5, NOTE_B4, NOTE_CS5, NOTE_E5, NOTE_FS5, NOTE_CS5, NOTE_E5, NOTE_DS5, NOTE_CS5, NOTE_A4, NOTE_GS4, NOTE_CS4, NOTE_GS4, NOTE_FS4, NOTE_GS4, NOTE_B4, NO_NOTE, NOTE_FS4, NO_NOTE, NOTE_FS4, NOTE_GS4, NOTE_FS4, NOTE_GS4, NOTE_E4, NOTE_A3, NOTE_A3, NOTE_DS4, NOTE_A3, NOTE_A3, NOTE_CS4, NOTE_A3, NOTE_A3, NOTE_CS4, NOTE_A3, NOTE_A3, NOTE_CS4, NOTE_A3, NOTE_CS4, NOTE_A3, NOTE_GS4, NOTE_FS4, NOTE_GS4, NOTE_B4, NO_NOTE, NOTE_FS4, NO_NOTE, NOTE_FS4, NOTE_GS4, NOTE_FS4, NOTE_GS4, NOTE_FS4, NO_NOTE, NOTE_E4, NO_NOTE, NOTE_DS4, NOTE_GS3, NOTE_DS5, NOTE_GS3, NOTE_CS5, NOTE_GS3, NOTE_DS5, NOTE_GS3, NOTE_B4, NOTE_GS3, NOTE_B4, NOTE_AS4, NOTE_B4, NOTE_CS5, NOTE_B4, NOTE_AS4, NOTE_B4, NOTE_GS3, NOTE_DS5, NOTE_GS3, NOTE_CS5, NOTE_GS3, NOTE_DS5, NOTE_GS3, NOTE_B4, NOTE_GS3, NOTE_B4, NOTE_CS5, NOTE_DS5, NOTE_E5, NOTE_DS5, NOTE_CS5, NOTE_B4, NOTE_E4, NOTE_DS5, NOTE_E4, NOTE_CS5, NOTE_E4, NOTE_DS5, NOTE_E4, NOTE_B4, NOTE_E4, NOTE_B4, NOTE_AS4, NOTE_B4, NOTE_CS5, NOTE_B4, NOTE_AS4, NOTE_B4, NOTE_FS4, NOTE_CS5, NOTE_FS4, NOTE_B4, NOTE_FS4, NOTE_CS5, NOTE_FS4, NOTE_AS4, NOTE_FS4, NOTE_AS4, NOTE_B4, NOTE_CS5, NOTE_DS5, NOTE_CS5, NOTE_B4, NOTE_AS4, NOTE_GS3, NOTE_DS5, NOTE_GS3, NOTE_CS5, NOTE_GS3, NOTE_DS5, NOTE_GS3, NOTE_B4, NOTE_GS3, NOTE_B4, NOTE_AS4, NOTE_B4, NOTE_CS5, NOTE_B4, NOTE_AS4, NOTE_B4, NOTE_GS3, NOTE_DS5, NOTE_GS3, NOTE_CS5, NOTE_GS3, NOTE_DS5, NOTE_GS3, NOTE_B4, NOTE_GS3, NOTE_B4, NOTE_CS5, NOTE_DS5, NOTE_E5, NOTE_DS5, NOTE_CS5, NOTE_B4, NOTE_E4, NOTE_DS5, NOTE_E4, NOTE_CS5, NOTE_E4, NOTE_DS5, NOTE_E4, NOTE_B4, NOTE_E4, NOTE_B4, NOTE_AS4, NOTE_B4, NOTE_CS5, NOTE_B4, NOTE_AS4, NOTE_B4, NOTE_FS4, NOTE_CS5, NOTE_FS4, NOTE_B4, NOTE_FS4, NOTE_CS5, NOTE_FS4, NOTE_AS4, NOTE_FS4, NOTE_AS4, NOTE_B4, NOTE_AS4, NOTE_B4, NOTE_AS4, NOTE_GS4, NOTE_FS4, NOTE_CS4, NOTE_B3, NOTE_CS4, NOTE_CS3, NOTE_CS3
};

short int duration[] = {
QUARTER+EIGHTH, QUARTER+EIGHTH, QUARTER, QUARTER+EIGHTH, QUARTER+EIGHTH, QUARTER, QUARTER+EIGHTH, QUARTER+EIGHTH, QUARTER+WHOLE, QUARTER+EIGHTH, QUARTER+EIGHTH, QUARTER, QUARTER+EIGHTH, QUARTER+EIGHTH, QUARTER, WHOLE, HALF, HALF, QUARTER+EIGHTH, QUARTER+EIGHTH, QUARTER, QUARTER+EIGHTH, QUARTER+EIGHTH, QUARTER, QUARTER+EIGHTH, QUARTER+EIGHTH, QUARTER+WHOLE, QUARTER+EIGHTH, QUARTER+EIGHTH, QUARTER, QUARTER+EIGHTH, QUARTER+EIGHTH, QUARTER, WHOLE, HALF, HALF, EIGHTH, EIGHTH, EIGHTH, EIGHTH, QUARTER, EIGHTH, EIGHTH, EIGHTH, EIGHTH, EIGHTH, EIGHTH, EIGHTH, EIGHTH, QUARTER, EIGHTH, EIGHTH, EIGHTH, EIGHTH, QUARTER, EIGHTH, QUARTER+EIGHTH, EIGHTH, QUARTER+EIGHTH, QUARTER, EIGHTH, EIGHTH, EIGHTH, EIGHTH, QUARTER, EIGHTH, EIGHTH, EIGHTH, EIGHTH, EIGHTH, EIGHTH, EIGHTH, EIGHTH, QUARTER, EIGHTH, EIGHTH, EIGHTH, EIGHTH, QUARTER, EIGHTH, QUARTER+EIGHTH, EIGHTH, QUARTER+EIGHTH, QUARTER, EIGHTH, EIGHTH, EIGHTH, EIGHTH, QUARTER, EIGHTH, EIGHTH, EIGHTH, EIGHTH, EIGHTH, EIGHTH, EIGHTH, EIGHTH, QUARTER, EIGHTH, EIGHTH, EIGHTH, EIGHTH, QUARTER, EIGHTH, QUARTER+EIGHTH, EIGHTH, QUARTER+EIGHTH, QUARTER, EIGHTH, EIGHTH, EIGHTH, EIGHTH, QUARTER, EIGHTH, EIGHTH, EIGHTH, EIGHTH, EIGHTH, EIGHTH, EIGHTH, EIGHTH, QUARTER, EIGHTH, EIGHTH, EIGHTH, EIGHTH, QUARTER, EIGHTH, QUARTER+EIGHTH, EIGHTH, QUARTER+EIGHTH, QUARTER, EIGHTH, EIGHTH, EIGHTH, EIGHTH, QUARTER, EIGHTH, EIGHTH, EIGHTH, EIGHTH, EIGHTH, EIGHTH, EIGHTH, EIGHTH, QUARTER, EIGHTH, EIGHTH, EIGHTH, EIGHTH, QUARTER, EIGHTH, QUARTER+EIGHTH, EIGHTH, QUARTER+EIGHTH, QUARTER, EIGHTH, EIGHTH, EIGHTH, EIGHTH, QUARTER, EIGHTH, EIGHTH, EIGHTH, EIGHTH, EIGHTH, EIGHTH, EIGHTH, EIGHTH, QUARTER, EIGHTH, EIGHTH, EIGHTH, EIGHTH, QUARTER, EIGHTH, QUARTER+EIGHTH, EIGHTH, QUARTER+EIGHTH, QUARTER+EIGHTH, HALF, EIGHTH, EIGHTH, EIGHTH, EIGHTH, EIGHTH, EIGHTH, EIGHTH, EIGHTH, EIGHTH, EIGHTH, EIGHTH, EIGHTH, HALF, EIGHTH, EIGHTH, EIGHTH, EIGHTH, EIGHTH, EIGHTH, EIGHTH, EIGHTH, EIGHTH, EIGHTH, QUARTER, WHOLE, QUARTER+EIGHTH, QUARTER+EIGHTH, QUARTER, QUARTER+EIGHTH, QUARTER+EIGHTH, QUARTER, QUARTER/3, QUARTER/3, QUARTER/3, QUARTER/3, QUARTER/3, QUARTER/3, QUARTER/3, QUARTER/3, QUARTER/3, QUARTER/3, QUARTER/3, QUARTER/3, QUARTER+EIGHTH, QUARTER+EIGHTH, QUARTER, QUARTER+EIGHTH, QUARTER+EIGHTH, QUARTER, QUARTER+EIGHTH, QUARTER+EIGHTH, QUARTER+WHOLE, QUARTER+EIGHTH, QUARTER+EIGHTH, QUARTER, QUARTER+EIGHTH, QUARTER+EIGHTH, QUARTER, WHOLE, HALF, QUARTER, QUARTER, QUARTER+EIGHTH, QUARTER+EIGHTH, QUARTER+WHOLE, QUARTER+EIGHTH, QUARTER+EIGHTH, QUARTER+WHOLE, QUARTER+EIGHTH, QUARTER+EIGHTH, QUARTER+WHOLE, QUARTER+EIGHTH, QUARTER+EIGHTH, QUARTER+WHOLE, QUARTER+EIGHTH, QUARTER+EIGHTH, QUARTER+WHOLE, QUARTER+SIXTEENTH, SIXTEENTH, QUARTER+SIXTEENTH, SIXTEENTH, QUARTER+WHOLE, QUARTER+EIGHTH, QUARTER+EIGHTH, QUARTER+WHOLE, EIGHTH, EIGHTH, EIGHTH, EIGHTH, EIGHTH, EIGHTH, EIGHTH, EIGHTH, EIGHTH, EIGHTH, EIGHTH, EIGHTH, EIGHTH, EIGHTH, EIGHTH, EIGHTH, QUARTER+EIGHTH, QUARTER+EIGHTH, QUARTER+WHOLE, QUARTER+SIXTEENTH, SIXTEENTH, QUARTER+SIXTEENTH, SIXTEENTH, QUARTER+WHOLE, QUARTER+EIGHTH, QUARTER+EIGHTH, QUARTER+WHOLE, QUARTER+SIXTEENTH, SIXTEENTH, QUARTER+SIXTEENTH, SIXTEENTH, QUARTER+WHOLE, EIGHTH, EIGHTH, EIGHTH, EIGHTH, EIGHTH, EIGHTH, EIGHTH, EIGHTH, EIGHTH, EIGHTH, EIGHTH, EIGHTH, EIGHTH, EIGHTH, EIGHTH, EIGHTH, EIGHTH, EIGHTH, EIGHTH, EIGHTH, EIGHTH, EIGHTH, EIGHTH, EIGHTH, EIGHTH, EIGHTH, EIGHTH, EIGHTH, EIGHTH, EIGHTH, EIGHTH, EIGHTH, EIGHTH, EIGHTH, EIGHTH, EIGHTH, EIGHTH, EIGHTH, EIGHTH, EIGHTH, EIGHTH, EIGHTH, EIGHTH, EIGHTH, EIGHTH, EIGHTH, EIGHTH, EIGHTH, EIGHTH, EIGHTH, EIGHTH, EIGHTH, EIGHTH, EIGHTH, EIGHTH, EIGHTH, EIGHTH, EIGHTH, EIGHTH, EIGHTH, EIGHTH, EIGHTH, EIGHTH, EIGHTH, EIGHTH, EIGHTH, EIGHTH, EIGHTH, EIGHTH, EIGHTH, EIGHTH, EIGHTH, EIGHTH, EIGHTH, EIGHTH, EIGHTH, EIGHTH, EIGHTH, EIGHTH, EIGHTH, EIGHTH, EIGHTH, EIGHTH, EIGHTH, EIGHTH, EIGHTH, EIGHTH, EIGHTH, EIGHTH, EIGHTH, EIGHTH, EIGHTH, EIGHTH, EIGHTH, EIGHTH, EIGHTH, EIGHTH, EIGHTH, EIGHTH, EIGHTH, EIGHTH, EIGHTH, EIGHTH, EIGHTH, EIGHTH, EIGHTH, EIGHTH, EIGHTH, EIGHTH, EIGHTH, EIGHTH, EIGHTH, EIGHTH, EIGHTH, EIGHTH, EIGHTH, EIGHTH, EIGHTH, EIGHTH, EIGHTH, EIGHTH, EIGHTH, EIGHTH, EIGHTH, EIGHTH, EIGHTH, EIGHTH, EIGHTH, QUARTER+EIGHTH, QUARTER+EIGHTH, HALF+QUARTER, EIGHTH, EIGHTH
};
