#include "../notes.h"

#define SIXTEENTH 75
#define NumNotas 329

short int tune[] = {
NOTE_D4, NOTE_D4, NOTE_D5, NOTE_D4, NOTE_D4, NOTE_D4, NOTE_D4, NOTE_A3, NOTE_C4, NOTE_D4, NOTE_D4, NOTE_D4, NOTE_E4, NOTE_F4, NOTE_F4, NOTE_F4, NOTE_G4, NOTE_E4, NOTE_E4, NOTE_D4, NOTE_C4, NOTE_C4, NOTE_D4, NO_NOTE, NO_NOTE, NOTE_A3, NOTE_C4, NOTE_D4, NOTE_D4, NOTE_D4, NOTE_E4, NOTE_F4, NOTE_F4, NOTE_F4, NOTE_G4, NOTE_E4, NOTE_E4, NOTE_D4, NOTE_C4, NOTE_D4, NO_NOTE, NO_NOTE, NOTE_A3, NOTE_C4, NOTE_D4, NOTE_D4, NOTE_D4, NOTE_F4, NOTE_G4, NOTE_G4, NOTE_G4, NOTE_A4, NOTE_AS4, NOTE_AS4, NOTE_A4, NOTE_G4, NOTE_A4, NOTE_D4, NO_NOTE, NO_NOTE, NOTE_D4, NOTE_E4, NOTE_F4, NOTE_F4, NOTE_G4, NOTE_A4, NOTE_D4, NO_NOTE, NO_NOTE, NOTE_D4, NOTE_F4, NOTE_E4, NOTE_E4, NOTE_F4, NOTE_D4, NOTE_E4, NO_NOTE, NO_NOTE, NOTE_A4, NOTE_C5, NOTE_D5, NOTE_D5, NOTE_D5, NOTE_E5, NOTE_F5, NOTE_F5, NOTE_F5, NOTE_G5, NOTE_E5, NOTE_E5, NOTE_D5, NOTE_C5, NOTE_C5, NOTE_D5, NO_NOTE, NO_NOTE, NOTE_A4, NOTE_C5, NOTE_D5, NOTE_D5, NOTE_D5, NOTE_E5, NOTE_F5, NOTE_F5, NOTE_F5, NOTE_G5, NOTE_E5, NOTE_E5, NOTE_D5, NOTE_C5, NOTE_D5, NO_NOTE, NO_NOTE, NOTE_A4, NOTE_C5, NOTE_D5, NOTE_D5, NOTE_D5, NOTE_E5, NOTE_F5, NOTE_F5, NOTE_F5, NOTE_G5, NOTE_AS5, NOTE_AS5, NOTE_A5, NOTE_G5, NOTE_A5, NOTE_D5, NO_NOTE, NO_NOTE, NOTE_D5, NOTE_E5, NOTE_F5, NOTE_F5, NOTE_G5, NOTE_A5, NOTE_D5, NO_NOTE, NO_NOTE, NOTE_D5, NOTE_F5, NOTE_E5, NOTE_E5, NOTE_D5, NOTE_CS5, NOTE_D5, NOTE_D5, NOTE_E5, NOTE_F5, NOTE_F5, NOTE_F5, NOTE_G5, NOTE_A5, NOTE_D5, NO_NOTE, NO_NOTE, NOTE_F5, NOTE_D5, NOTE_A4, NO_NOTE, NO_NOTE, NO_NOTE, NOTE_AS5, NO_NOTE, NO_NOTE, NO_NOTE, NOTE_F5, NOTE_D5, NOTE_AS4, NO_NOTE, NO_NOTE, NO_NOTE, NOTE_A3, NO_NOTE, NO_NOTE, NOTE_D4, NO_NOTE, NO_NOTE, NOTE_F4, NO_NOTE, NO_NOTE, NO_NOTE, NOTE_D4, NOTE_E4, NOTE_A5, NOTE_A5, NOTE_A5, NOTE_AS5, NOTE_A5, NO_NOTE, NO_NOTE, NO_NOTE, NOTE_G5, NOTE_G5, NOTE_G5, NOTE_G5, NOTE_A5, NO_NOTE, NO_NOTE, NO_NOTE, NOTE_A5, NOTE_A5, NOTE_A5, NOTE_AS5, NOTE_A5, NO_NOTE, NO_NOTE, NOTE_G5, NOTE_F5, NOTE_E5, NOTE_D5, NO_NOTE, NO_NOTE, NOTE_D4, NOTE_E4, NOTE_F4, NOTE_G4, NOTE_A4, NOTE_G4, NOTE_F4, NOTE_E4, NOTE_F4, NOTE_G4, NOTE_A4, NOTE_G4, NO_NOTE, NO_NOTE, NOTE_F4, NOTE_G4, NOTE_A4, NOTE_G4, NOTE_F4, NOTE_E4, NOTE_F4, NOTE_E4, NOTE_D4, NOTE_E4, NOTE_C4, NOTE_D4, NOTE_D5, NOTE_E5, NOTE_F5, NOTE_E5, NOTE_F5, NOTE_G5, NOTE_F5, NOTE_G5, NOTE_A5, NOTE_G5, NOTE_F5, NOTE_D5, NO_NOTE, NO_NOTE, NOTE_D5, NOTE_E5, NOTE_F5, NOTE_G5, NOTE_A5, NOTE_AS5, NOTE_D5, NOTE_G5, NOTE_F5, NO_NOTE, NOTE_G5, NOTE_E5, NOTE_D5, NO_NOTE, NOTE_E5, NOTE_CS5, NOTE_A5, NO_NOTE, NO_NOTE, NOTE_AS5, NO_NOTE, NO_NOTE, NOTE_A5, NOTE_A5, NOTE_A5, NOTE_A5, NOTE_G5, NO_NOTE, NO_NOTE, NOTE_G5, NO_NOTE, NO_NOTE, NOTE_F5, NO_NOTE, NO_NOTE, NOTE_E5, NOTE_F5, NOTE_E5, NOTE_E5, NOTE_D5, NO_NOTE, NOTE_D5, NOTE_E5, NOTE_F5, NOTE_A5, NO_NOTE, NO_NOTE, NOTE_D5, NOTE_E5, NOTE_F5, NOTE_AS5, NO_NOTE, NO_NOTE, NOTE_D5, NOTE_E5, NOTE_F5, NOTE_A5, NOTE_A5, NOTE_C6, NOTE_A5, NOTE_G5, NO_NOTE, NO_NOTE, NOTE_G5, NO_NOTE, NO_NOTE, NOTE_F5, NO_NOTE, NO_NOTE, NOTE_E5, NOTE_F5, NOTE_E5, NOTE_D5, NO_NOTE, NO_NOTE
};

short int duration[] = {
QUARTER, EIGHTH, QUARTER, EIGHTH, QUARTER, EIGHTH, EIGHTH, EIGHTH, EIGHTH, QUARTER, QUARTER, EIGHTH, EIGHTH, QUARTER, QUARTER, EIGHTH, EIGHTH, QUARTER, QUARTER, EIGHTH, EIGHTH, EIGHTH, EIGHTH, EIGHTH, EIGHTH, EIGHTH, EIGHTH, QUARTER, QUARTER, EIGHTH, EIGHTH, QUARTER, QUARTER, EIGHTH, EIGHTH, QUARTER, QUARTER, EIGHTH, EIGHTH, QUARTER, EIGHTH, EIGHTH, EIGHTH, EIGHTH, QUARTER, QUARTER, EIGHTH, EIGHTH, QUARTER, QUARTER, EIGHTH, EIGHTH, QUARTER, QUARTER, EIGHTH, EIGHTH, EIGHTH, EIGHTH, EIGHTH, EIGHTH, EIGHTH, EIGHTH, QUARTER, QUARTER, QUARTER, EIGHTH, EIGHTH, EIGHTH, EIGHTH, EIGHTH, EIGHTH, QUARTER, QUARTER, EIGHTH, EIGHTH, QUARTER, EIGHTH, EIGHTH, EIGHTH, EIGHTH, QUARTER, QUARTER, EIGHTH, EIGHTH, QUARTER, QUARTER, EIGHTH, EIGHTH, QUARTER, QUARTER, EIGHTH, EIGHTH, EIGHTH, EIGHTH, EIGHTH, EIGHTH, EIGHTH, EIGHTH, QUARTER, QUARTER, EIGHTH, EIGHTH, QUARTER, QUARTER, EIGHTH, EIGHTH, QUARTER, QUARTER, EIGHTH, EIGHTH, QUARTER, EIGHTH, EIGHTH, EIGHTH, EIGHTH, QUARTER, QUARTER, EIGHTH, EIGHTH, QUARTER, QUARTER, EIGHTH, EIGHTH, QUARTER, QUARTER, EIGHTH, EIGHTH, EIGHTH, EIGHTH, EIGHTH, EIGHTH, EIGHTH, EIGHTH, QUARTER, QUARTER, QUARTER, EIGHTH, EIGHTH, EIGHTH, EIGHTH, EIGHTH, EIGHTH, QUARTER, QUARTER, EIGHTH, EIGHTH, QUARTER, QUARTER, QUARTER, QUARTER, EIGHTH, EIGHTH, QUARTER, EIGHTH, EIGHTH, EIGHTH, EIGHTH, EIGHTH, EIGHTH, EIGHTH, EIGHTH, EIGHTH, QUARTER+EIGHTH, EIGHTH, EIGHTH, EIGHTH, EIGHTH, EIGHTH, EIGHTH, EIGHTH, EIGHTH, EIGHTH, QUARTER+EIGHTH, EIGHTH, EIGHTH, EIGHTH, EIGHTH, EIGHTH, EIGHTH, EIGHTH, EIGHTH, EIGHTH, EIGHTH, EIGHTH, EIGHTH, QUARTER, QUARTER, QUARTER, EIGHTH, EIGHTH, EIGHTH, EIGHTH, QUARTER, QUARTER, QUARTER, QUARTER, EIGHTH, EIGHTH, EIGHTH, EIGHTH, QUARTER, QUARTER, QUARTER, QUARTER, EIGHTH, EIGHTH, EIGHTH, QUARTER+EIGHTH, QUARTER, QUARTER, QUARTER, QUARTER, EIGHTH, EIGHTH, EIGHTH, EIGHTH, HALF, EIGHTH, EIGHTH, QUARTER, QUARTER, QUARTER, QUARTER, QUARTER, QUARTER, QUARTER, EIGHTH, EIGHTH, EIGHTH, EIGHTH, HALF, EIGHTH, EIGHTH, QUARTER, QUARTER, QUARTER, HALF, EIGHTH, EIGHTH, HALF, EIGHTH, EIGHTH, HALF, EIGHTH, EIGHTH, QUARTER, QUARTER, QUARTER, QUARTER, QUARTER, QUARTER, QUARTER, EIGHTH, EIGHTH, EIGHTH, EIGHTH, QUARTER, QUARTER, QUARTER, QUARTER, QUARTER, QUARTER, QUARTER, EIGHTH, EIGHTH, QUARTER, QUARTER, EIGHTH, EIGHTH, QUARTER, QUARTER, EIGHTH, QUARTER+EIGHTH, QUARTER, EIGHTH, QUARTER+EIGHTH, QUARTER, QUARTER, QUARTER, EIGHTH, EIGHTH, EIGHTH, QUARTER+EIGHTH, QUARTER, EIGHTH, QUARTER+EIGHTH, QUARTER, EIGHTH, QUARTER+EIGHTH, QUARTER, QUARTER, QUARTER, EIGHTH, EIGHTH, EIGHTH, EIGHTH, EIGHTH, EIGHTH, EIGHTH, EIGHTH, EIGHTH, EIGHTH, EIGHTH, EIGHTH, EIGHTH, EIGHTH, EIGHTH, EIGHTH, EIGHTH, EIGHTH, QUARTER, QUARTER, QUARTER, EIGHTH, EIGHTH, EIGHTH, QUARTER+EIGHTH, QUARTER, EIGHTH, QUARTER+EIGHTH, QUARTER, EIGHTH, QUARTER+EIGHTH, QUARTER, QUARTER, QUARTER, QUARTER, EIGHTH, QUARTER+EIGHTH
};
