#include "../notes.h"

#define SIXTEENTH 90
#define NumNotas 369

short int tune[] = {
NO_NOTE, NO_NOTE, NOTE_C4, NOTE_D4, NOTE_DS4, NOTE_F4, NOTE_G4, NOTE_G4, NOTE_G4, NOTE_F4, NOTE_DS4, NOTE_F4, NOTE_DS4, NOTE_D4, NO_NOTE, NOTE_C4, NOTE_D4, NOTE_DS4, NO_NOTE, NOTE_D4, NOTE_DS4, NOTE_F4, NO_NOTE, NOTE_AS3, NOTE_AS3, NOTE_G4, NO_NOTE, NOTE_FS4, NOTE_G4, NOTE_B4, NO_NOTE, NOTE_C5, NOTE_D5, NOTE_DS5, NOTE_F5, NOTE_G5, NOTE_G5, NOTE_G5, NOTE_F5, NOTE_DS5, NOTE_F5, NOTE_DS5, NOTE_D5, NO_NOTE, NOTE_C5, NOTE_D5, NOTE_DS5, NOTE_D5, NOTE_C5, NOTE_DS5, NOTE_G5, NOTE_F5, NOTE_DS5, NOTE_D5, NOTE_D5, NOTE_AS4, NOTE_C5, NOTE_C5, NOTE_C5, NOTE_C5, NOTE_AS4, NOTE_AS4, NOTE_GS5, NOTE_GS5, NOTE_GS5, NOTE_G5, NOTE_F5, NOTE_G5, NOTE_F5, NOTE_F5, NO_NOTE, NOTE_AS4, NOTE_AS4, NOTE_AS4, NOTE_AS5, NOTE_GS5, NOTE_G5, NOTE_F5, NOTE_F5, NOTE_DS5, NOTE_D5, NOTE_DS5, NOTE_C5, NOTE_D5, NOTE_DS5, NOTE_D5, NOTE_C5, NOTE_DS5, NOTE_D5, NOTE_DS5, NOTE_F5, NOTE_DS5, NOTE_D5, NOTE_F5, NOTE_C5, NOTE_C5, NOTE_C5, NOTE_B4, NOTE_C5, NOTE_D5, NO_NOTE, NOTE_DS5, NOTE_F5, NOTE_G5, NOTE_G5, NOTE_F5, NOTE_G5, NOTE_F5, NOTE_DS5, NOTE_D5, NOTE_C5, NOTE_G5, NOTE_D5, NOTE_DS5, NOTE_F5, NOTE_F5, NOTE_F5, NOTE_AS5, NOTE_GS5, NOTE_G5, NOTE_F5, NOTE_G5, NO_NOTE, NOTE_DS5, NOTE_F5, NOTE_G5, NO_NOTE, NOTE_DS5, NOTE_F5, NOTE_G5, NOTE_G5, NOTE_F5, NOTE_G5, NOTE_F5, NOTE_DS5, NOTE_D5, NOTE_C5, NOTE_G5, NOTE_D5, NOTE_DS5, NOTE_F5, NOTE_F5, NOTE_D5, NOTE_DS5, NOTE_F5, NOTE_F5, NO_NOTE, NO_NOTE, NOTE_GS5, NOTE_G5, NOTE_F5, NOTE_G5, NOTE_F5, NOTE_D5, NOTE_DS5, NOTE_C5, NOTE_DS5, NOTE_F5, NO_NOTE, NOTE_C6, NOTE_DS5, NOTE_C6, NOTE_DS5, NOTE_C6, NOTE_DS5, NOTE_C6, NOTE_DS5, NOTE_C6, NOTE_DS5, NOTE_C6, NOTE_DS5, NOTE_C6, NOTE_DS5, NOTE_C6, NOTE_DS5, NOTE_C6, NOTE_DS5, NOTE_C6, NOTE_DS5, NOTE_C6, NOTE_DS5, NOTE_C6, NOTE_DS5, NOTE_C6, NOTE_DS5, NOTE_C6, NOTE_DS5, NOTE_C6, NOTE_DS5, NOTE_C6, NOTE_DS5, NOTE_AS5, NOTE_D5, NOTE_AS5, NOTE_D5, NOTE_AS5, NOTE_D5, NOTE_AS5, NOTE_D5, NOTE_AS5, NOTE_D5, NOTE_AS5, NOTE_D5, NOTE_AS5, NOTE_D5, NOTE_AS5, NOTE_D5, NOTE_AS5, NOTE_D5, NOTE_AS5, NOTE_D5, NOTE_AS5, NOTE_D5, NOTE_AS5, NOTE_D5, NOTE_AS5, NOTE_D5, NOTE_AS5, NOTE_D5, NOTE_AS5, NOTE_D5, NOTE_AS5, NOTE_D5, NOTE_GS5, NOTE_C5, NOTE_GS5, NOTE_C5, NOTE_GS5, NOTE_C5, NOTE_GS5, NOTE_C5, NOTE_GS5, NOTE_C5, NOTE_GS5, NOTE_C5, NOTE_GS5, NOTE_C5, NOTE_GS5, NOTE_C5, NOTE_AS5, NOTE_D5, NOTE_AS5, NOTE_D5, NOTE_AS5, NOTE_D5, NOTE_AS5, NOTE_D5, NOTE_AS5, NOTE_D5, NOTE_AS5, NOTE_D5, NOTE_AS5, NOTE_D5, NOTE_AS5, NOTE_D5, NOTE_C6, NOTE_DS5, NOTE_C6, NOTE_DS5, NOTE_C6, NOTE_DS5, NOTE_C6, NOTE_DS5, NOTE_C6, NOTE_C6, NOTE_C6, NOTE_C6, NOTE_AS5, NOTE_AS5, NOTE_GS5, NOTE_GS5, NOTE_GS5, NOTE_G5, NOTE_F5, NOTE_G5, NOTE_F5, NOTE_F5, NO_NOTE, NOTE_AS4, NOTE_AS4, NOTE_AS4, NOTE_AS5, NOTE_GS5, NOTE_G5, NOTE_F5, NOTE_DS5, NO_NOTE, NOTE_C5, NOTE_D5, NOTE_DS5, NOTE_D5, NOTE_C5, NOTE_DS5, NOTE_D5, NOTE_DS5, NOTE_F5, NOTE_DS5, NOTE_D5, NOTE_F5, NOTE_C5, NOTE_C5, NOTE_C5, NOTE_B4, NOTE_C5, NOTE_D5, NO_NOTE, NOTE_D5, NOTE_DS5, NOTE_F5, NO_NOTE, NOTE_DS6, NOTE_F6, NOTE_G6, NOTE_G6, NOTE_F6, NOTE_G6, NOTE_F6, NOTE_DS6, NOTE_D6, NOTE_C6, NOTE_G6, NOTE_D6, NOTE_DS6, NOTE_F6, NOTE_F6, NOTE_F6, NOTE_AS6, NOTE_GS6, NOTE_G6, NOTE_F6, NOTE_G6, NO_NOTE, NOTE_DS6, NOTE_F6, NOTE_G6, NO_NOTE, NOTE_DS6, NOTE_F6, NOTE_G6, NOTE_G6, NOTE_F6, NOTE_G6, NOTE_F6, NOTE_DS6, NOTE_D6, NOTE_C6, NOTE_G6, NOTE_D6, NOTE_DS6, NOTE_F6, NOTE_F6, NOTE_D6, NOTE_DS6, NOTE_F6, NOTE_F6, NO_NOTE, NO_NOTE, NOTE_GS6, NOTE_G6, NOTE_F6, NOTE_G6, NOTE_F6, NOTE_G6, NOTE_F6, NOTE_C7, NO_NOTE, NOTE_C7, NO_NOTE, NOTE_C7
};

short int duration[] = {
QUARTER, EIGHTH, QUARTER, EIGHTH, EIGHTH, EIGHTH, WHOLE+QUARTER+EIGHTH, QUARTER, EIGHTH, EIGHTH, EIGHTH, EIGHTH, QUARTER, WHOLE+EIGHTH, EIGHTH, EIGHTH, EIGHTH, EIGHTH+HALF, EIGHTH, EIGHTH, EIGHTH, EIGHTH+HALF, EIGHTH, EIGHTH, EIGHTH, EIGHTH+HALF, EIGHTH, EIGHTH, EIGHTH, QUARTER+EIGHTH, EIGHTH, QUARTER, EIGHTH, EIGHTH, EIGHTH, WHOLE+QUARTER+EIGHTH, QUARTER, EIGHTH, EIGHTH, EIGHTH, EIGHTH, QUARTER, WHOLE+EIGHTH, EIGHTH, EIGHTH, EIGHTH, QUARTER, EIGHTH, EIGHTH, QUARTER+EIGHTH, QUARTER, QUARTER, QUARTER, EIGHTH, EIGHTH, EIGHTH, EIGHTH+WHOLE, EIGHTH, EIGHTH, EIGHTH, QUARTER+EIGHTH, QUARTER, QUARTER+EIGHTH, QUARTER, EIGHTH, EIGHTH, EIGHTH, QUARTER, EIGHTH, EIGHTH, EIGHTH, EIGHTH, EIGHTH, EIGHTH, QUARTER, QUARTER, QUARTER, QUARTER, EIGHTH, EIGHTH, EIGHTH, QUARTER, EIGHTH, EIGHTH, QUARTER, EIGHTH, EIGHTH, QUARTER, EIGHTH, EIGHTH, QUARTER, EIGHTH, EIGHTH, QUARTER, EIGHTH, EIGHTH, EIGHTH, QUARTER+EIGHTH, QUARTER+EIGHTH, HALF+QUARTER, QUARTER, EIGHTH, EIGHTH, EIGHTH, HALF+QUARTER, EIGHTH, QUARTER, QUARTER, QUARTER, QUARTER, QUARTER+EIGHTH, WHOLE+QUARTER+EIGHTH, EIGHTH, EIGHTH, EIGHTH, HALF+QUARTER, EIGHTH, QUARTER, QUARTER, QUARTER, EIGHTH, HALF+EIGHTH, EIGHTH, EIGHTH, EIGHTH, EIGHTH+HALF, QUARTER, EIGHTH, EIGHTH, EIGHTH, HALF+QUARTER, EIGHTH, QUARTER, QUARTER, QUARTER, QUARTER, QUARTER+EIGHTH, WHOLE+QUARTER+EIGHTH, EIGHTH, EIGHTH, EIGHTH, HALF+EIGHTH, EIGHTH, EIGHTH, EIGHTH, HALF+QUARTER, EIGHTH, QUARTER, QUARTER, QUARTER, QUARTER, WHOLE+WHOLE, WHOLE+HALF, HALF, WHOLE, HALF, HALF, WHOLE+HALF+QUARTER, QUARTER, SIXTEENTH, SIXTEENTH, SIXTEENTH, SIXTEENTH, SIXTEENTH, SIXTEENTH, SIXTEENTH, SIXTEENTH, SIXTEENTH, SIXTEENTH, SIXTEENTH, SIXTEENTH, SIXTEENTH, SIXTEENTH, SIXTEENTH, SIXTEENTH, SIXTEENTH, SIXTEENTH, SIXTEENTH, SIXTEENTH, SIXTEENTH, SIXTEENTH, SIXTEENTH, SIXTEENTH, SIXTEENTH, SIXTEENTH, SIXTEENTH, SIXTEENTH, SIXTEENTH, SIXTEENTH, SIXTEENTH, SIXTEENTH, SIXTEENTH, SIXTEENTH, SIXTEENTH, SIXTEENTH, SIXTEENTH, SIXTEENTH, SIXTEENTH, SIXTEENTH, SIXTEENTH, SIXTEENTH, SIXTEENTH, SIXTEENTH, SIXTEENTH, SIXTEENTH, SIXTEENTH, SIXTEENTH, SIXTEENTH, SIXTEENTH, SIXTEENTH, SIXTEENTH, SIXTEENTH, SIXTEENTH, SIXTEENTH, SIXTEENTH, SIXTEENTH, SIXTEENTH, SIXTEENTH, SIXTEENTH, SIXTEENTH, SIXTEENTH, SIXTEENTH, SIXTEENTH, SIXTEENTH, SIXTEENTH, SIXTEENTH, SIXTEENTH, SIXTEENTH, SIXTEENTH, SIXTEENTH, SIXTEENTH, SIXTEENTH, SIXTEENTH, SIXTEENTH, SIXTEENTH, SIXTEENTH, SIXTEENTH, SIXTEENTH, SIXTEENTH, SIXTEENTH, SIXTEENTH, SIXTEENTH, SIXTEENTH, SIXTEENTH, SIXTEENTH, SIXTEENTH, SIXTEENTH, SIXTEENTH, SIXTEENTH, SIXTEENTH, SIXTEENTH, SIXTEENTH, SIXTEENTH, SIXTEENTH, SIXTEENTH, SIXTEENTH, SIXTEENTH, SIXTEENTH, SIXTEENTH, SIXTEENTH, SIXTEENTH, SIXTEENTH, SIXTEENTH, HALF, EIGHTH, EIGHTH, EIGHTH, QUARTER+EIGHTH, QUARTER, QUARTER+EIGHTH, QUARTER, EIGHTH, EIGHTH, EIGHTH, QUARTER, EIGHTH, EIGHTH, EIGHTH, EIGHTH, EIGHTH, EIGHTH, QUARTER, QUARTER, QUARTER, EIGHTH, EIGHTH+HALF, EIGHTH, EIGHTH, EIGHTH, QUARTER, EIGHTH, EIGHTH, QUARTER, EIGHTH, EIGHTH, QUARTER, EIGHTH, EIGHTH, QUARTER, EIGHTH, EIGHTH, EIGHTH, QUARTER+EIGHTH, QUARTER+EIGHTH, WHOLE, QUARTER, QUARTER+EIGHTH, QUARTER+EIGHTH, HALF+QUARTER, QUARTER, EIGHTH, EIGHTH, EIGHTH, HALF+QUARTER, EIGHTH, QUARTER, QUARTER, QUARTER, QUARTER, QUARTER+EIGHTH, EIGHTH+WHOLE+QUARTER, EIGHTH, EIGHTH, EIGHTH, HALF+QUARTER, EIGHTH, QUARTER, QUARTER, QUARTER, EIGHTH, EIGHTH+HALF, EIGHTH, EIGHTH, EIGHTH, EIGHTH+HALF, QUARTER, EIGHTH, EIGHTH, EIGHTH, HALF+QUARTER, EIGHTH, QUARTER, QUARTER, QUARTER, QUARTER, QUARTER+EIGHTH, EIGHTH+WHOLE+QUARTER, EIGHTH, EIGHTH, EIGHTH, HALF+EIGHTH, EIGHTH, EIGHTH, EIGHTH, HALF+QUARTER, EIGHTH, QUARTER, QUARTER, QUARTER, QUARTER, WHOLE+WHOLE, WHOLE+WHOLE, WHOLE+WHOLE, WHOLE+WHOLE, QUARTER, QUARTER, QUARTER, QUARTER, WHOLE+WHOLE
};

