#include "../notes.h"

#define SIXTEENTH 83
#define NumNotas 483

short int tune[] = {
NOTE_D5, NOTE_D5, NO_NOTE, NOTE_D5, NO_NOTE, NOTE_AS4, NOTE_D5, NO_NOTE, NOTE_F5, NO_NOTE, NOTE_F4, NO_NOTE, NOTE_AS4, NO_NOTE, NOTE_F4, NO_NOTE, NOTE_D4, NO_NOTE, NOTE_G4, NO_NOTE, NOTE_A4, NO_NOTE, NOTE_GS4, NOTE_G4, NO_NOTE, NOTE_F4, NO_NOTE, NOTE_D5, NO_NOTE, NOTE_F5, NO_NOTE, NOTE_G5, NO_NOTE, NOTE_DS5, NOTE_F5, NO_NOTE, NOTE_D5, NO_NOTE, NOTE_AS4, NOTE_C5, NOTE_A4, NO_NOTE, NOTE_AS4, NO_NOTE, NOTE_F4, NO_NOTE, NOTE_D4, NO_NOTE, NO_NOTE, NOTE_G4, NO_NOTE, NOTE_A4, NO_NOTE, NOTE_GS4, NOTE_G4, NO_NOTE, NOTE_F4, NO_NOTE, NOTE_D5, NO_NOTE, NOTE_F5, NO_NOTE, NOTE_G5, NO_NOTE, NOTE_DS5, NOTE_F5, NO_NOTE, NOTE_D5, NO_NOTE, NOTE_AS4, NOTE_C5, NOTE_A4, NO_NOTE, NOTE_F5, NOTE_E5, NOTE_DS5, NOTE_CS5, NO_NOTE, NOTE_D5, NO_NOTE, NOTE_FS4, NOTE_G4, NOTE_AS4, NO_NOTE, NOTE_G4, NOTE_AS4, NOTE_C5, NO_NOTE, NOTE_F5, NOTE_E5, NOTE_DS5, NOTE_CS5, NO_NOTE, NOTE_D5, NO_NOTE, NOTE_AS5, NO_NOTE, NOTE_AS5, NOTE_AS5, NO_NOTE, NO_NOTE, NOTE_F5, NOTE_E5, NOTE_DS5, NOTE_CS5, NO_NOTE, NOTE_D5, NO_NOTE, NOTE_FS4, NOTE_G4, NOTE_AS4, NO_NOTE, NOTE_G4, NOTE_AS4, NOTE_C5, NO_NOTE, NOTE_CS5, NO_NOTE, NOTE_C5, NO_NOTE, NOTE_AS4, NO_NOTE, NO_NOTE, NOTE_AS4, NOTE_AS4, NO_NOTE, NOTE_AS4, NO_NOTE, NOTE_AS4, NOTE_C5, NO_NOTE, NOTE_D5, NOTE_AS4, NO_NOTE, NOTE_G4, NOTE_F4, NO_NOTE, NOTE_AS4, NOTE_AS4, NO_NOTE, NOTE_AS4, NO_NOTE, NOTE_AS4, NOTE_C5, NOTE_D5, NO_NOTE, NOTE_AS4, NOTE_AS4, NO_NOTE, NOTE_AS4, NO_NOTE, NOTE_AS4, NOTE_C5, NO_NOTE, NOTE_D5, NOTE_AS4, NO_NOTE, NOTE_G4, NOTE_F4, NO_NOTE, NOTE_D5, NOTE_D5, NO_NOTE, NOTE_D5, NO_NOTE, NOTE_AS4, NOTE_D5, NO_NOTE, NOTE_F5, NO_NOTE, NOTE_F4, NO_NOTE, NOTE_AS4, NO_NOTE, NOTE_F4, NO_NOTE, NOTE_D4, NO_NOTE, NOTE_G4, NO_NOTE, NOTE_A4, NO_NOTE, NOTE_GS4, NOTE_G4, NO_NOTE, NOTE_F4, NO_NOTE, NOTE_D5, NO_NOTE, NOTE_F5, NO_NOTE, NOTE_G5, NO_NOTE, NOTE_DS5, NOTE_F5, NO_NOTE, NOTE_D5, NO_NOTE, NOTE_AS4, NOTE_C5, NOTE_A4, NO_NOTE, NOTE_AS4, NO_NOTE, NOTE_F4, NO_NOTE, NOTE_D4, NO_NOTE, NOTE_G4, NO_NOTE, NOTE_A4, NO_NOTE, NOTE_GS4, NOTE_G4, NO_NOTE, NOTE_F4, NO_NOTE, NOTE_D5, NO_NOTE, NOTE_F5, NO_NOTE, NOTE_G5, NO_NOTE, NOTE_DS5, NOTE_F5, NO_NOTE, NOTE_D5, NO_NOTE, NOTE_AS4, NOTE_C5, NOTE_A4, NO_NOTE, NOTE_D5, NOTE_AS4, NO_NOTE, NOTE_F4, NO_NOTE, NOTE_FS4, NO_NOTE, NOTE_G4, NOTE_DS5, NO_NOTE, NOTE_DS5, NOTE_G4, NO_NOTE, NOTE_A4, NO_NOTE, NOTE_G5, NO_NOTE, NOTE_G5, NO_NOTE, NOTE_G5, NO_NOTE, NOTE_F5, NO_NOTE, NOTE_DS5, NO_NOTE, NOTE_D5, NOTE_AS4, NO_NOTE, NOTE_G4, NOTE_F4, NO_NOTE, NOTE_D5, NOTE_AS4, NO_NOTE, NOTE_F4, NO_NOTE, NOTE_FS4, NO_NOTE, NOTE_G4, NOTE_DS5, NO_NOTE, NOTE_DS5, NOTE_G4, NO_NOTE, NOTE_G4, NOTE_DS5, NO_NOTE, NOTE_DS5, NOTE_DS5, NO_NOTE, NOTE_D5, NO_NOTE, NOTE_C5, NO_NOTE, NOTE_AS4, NOTE_D4, NO_NOTE, NOTE_D4, NOTE_AS3, NO_NOTE, NOTE_D5, NOTE_AS4, NO_NOTE, NOTE_F4, NO_NOTE, NOTE_FS4, NO_NOTE, NOTE_G4, NOTE_DS5, NO_NOTE, NOTE_DS5, NOTE_G4, NO_NOTE, NOTE_A4, NO_NOTE, NOTE_G5, NO_NOTE, NOTE_G5, NO_NOTE, NOTE_G5, NO_NOTE, NOTE_F5, NO_NOTE, NOTE_DS5, NO_NOTE, NOTE_D5, NOTE_AS4, NO_NOTE, NOTE_G4, NOTE_F4, NO_NOTE, NOTE_D5, NOTE_AS4, NO_NOTE, NOTE_F4, NO_NOTE, NOTE_FS4, NO_NOTE, NOTE_G4, NOTE_DS5, NO_NOTE, NOTE_DS5, NOTE_G4, NO_NOTE, NOTE_G4, NOTE_DS5, NO_NOTE, NOTE_DS5, NOTE_DS5, NO_NOTE, NOTE_D5, NO_NOTE, NOTE_C5, NO_NOTE, NOTE_AS4, NOTE_D4, NO_NOTE, NOTE_D4, NOTE_AS3, NO_NOTE, NOTE_AS4, NOTE_AS4, NO_NOTE, NOTE_AS4, NO_NOTE, NOTE_AS4, NOTE_C5, NO_NOTE, NOTE_D5, NOTE_AS4, NO_NOTE, NOTE_G4, NOTE_F4, NO_NOTE, NOTE_AS4, NOTE_AS4, NO_NOTE, NOTE_AS4, NO_NOTE, NOTE_AS4, NOTE_C5, NOTE_D5, NO_NOTE, NOTE_AS4, NOTE_AS4, NO_NOTE, NOTE_AS4, NO_NOTE, NOTE_AS4, NOTE_C5, NO_NOTE, NOTE_D5, NOTE_AS4, NO_NOTE, NOTE_G4, NOTE_F4, NO_NOTE, NOTE_D5, NOTE_D5, NO_NOTE, NOTE_D5, NO_NOTE, NOTE_AS4, NOTE_D5, NO_NOTE, NOTE_F5, NO_NOTE, NOTE_F4, NO_NOTE, NOTE_D5, NOTE_AS4, NO_NOTE, NOTE_F4, NO_NOTE, NOTE_FS4, NO_NOTE, NOTE_G4, NOTE_DS5, NO_NOTE, NOTE_DS5, NOTE_G4, NO_NOTE, NOTE_A4, NO_NOTE, NOTE_G5, NO_NOTE, NOTE_G5, NO_NOTE, NOTE_G5, NO_NOTE, NOTE_F5, NO_NOTE, NOTE_DS5, NO_NOTE, NOTE_D5, NOTE_AS4, NO_NOTE, NOTE_G4, NOTE_F4, NO_NOTE, NOTE_D5, NOTE_AS4, NO_NOTE, NOTE_F4, NO_NOTE, NOTE_FS4, NO_NOTE, NOTE_G4, NOTE_DS5, NO_NOTE, NOTE_DS5, NOTE_G4, NO_NOTE, NOTE_A4, NOTE_DS5, NO_NOTE, NOTE_DS5, NOTE_DS5, NO_NOTE, NOTE_D5, NO_NOTE, NOTE_C5, NO_NOTE, NOTE_AS4, NOTE_D4, NO_NOTE, NOTE_D4, NOTE_AS3, NO_NOTE, NOTE_A4, NOTE_DS5, NO_NOTE, NOTE_DS5, NOTE_DS5, NO_NOTE, NOTE_D5, NO_NOTE, NOTE_C5, NO_NOTE, NOTE_AS4, NO_NOTE, NOTE_F4, NO_NOTE, NOTE_D4, NOTE_G4, NOTE_A4, NOTE_G4, NOTE_FS4, NOTE_GS4, NOTE_FS4, NOTE_F4
};

short int duration[] = {
EIGHTH, EIGHTH, EIGHTH, EIGHTH, EIGHTH, EIGHTH, EIGHTH, EIGHTH, EIGHTH, QUARTER+EIGHTH, EIGHTH, QUARTER+EIGHTH, EIGHTH, QUARTER, EIGHTH, QUARTER, EIGHTH, QUARTER, EIGHTH, EIGHTH, EIGHTH, EIGHTH, EIGHTH, EIGHTH, EIGHTH, QUARTER/3, QUARTER/3, QUARTER/3, QUARTER/3, QUARTER/3, QUARTER/3, EIGHTH, EIGHTH, EIGHTH, EIGHTH, EIGHTH, EIGHTH, EIGHTH, EIGHTH, EIGHTH, EIGHTH, QUARTER, EIGHTH, QUARTER, EIGHTH, QUARTER, EIGHTH, EIGHTH, EIGHTH, EIGHTH, EIGHTH, EIGHTH, EIGHTH, EIGHTH, EIGHTH, EIGHTH, QUARTER/3, QUARTER/3, QUARTER/3, QUARTER/3, QUARTER/3, QUARTER/3, EIGHTH, EIGHTH, EIGHTH, EIGHTH, EIGHTH, EIGHTH, EIGHTH, EIGHTH, EIGHTH, EIGHTH, QUARTER, EIGHTH, EIGHTH, EIGHTH, EIGHTH, EIGHTH, EIGHTH, EIGHTH, EIGHTH, EIGHTH, EIGHTH, EIGHTH, EIGHTH, EIGHTH, EIGHTH, QUARTER, EIGHTH, EIGHTH, EIGHTH, EIGHTH, EIGHTH, EIGHTH, EIGHTH, EIGHTH, EIGHTH, EIGHTH, EIGHTH, QUARTER+EIGHTH, QUARTER, EIGHTH, EIGHTH, EIGHTH, EIGHTH, EIGHTH, EIGHTH, EIGHTH, EIGHTH, EIGHTH, EIGHTH, EIGHTH, EIGHTH, EIGHTH, EIGHTH, QUARTER, EIGHTH, QUARTER, EIGHTH, QUARTER, EIGHTH, QUARTER+EIGHTH, HALF, EIGHTH, EIGHTH, EIGHTH, EIGHTH, EIGHTH, EIGHTH, EIGHTH, EIGHTH, EIGHTH, EIGHTH, EIGHTH, EIGHTH, EIGHTH, QUARTER+EIGHTH, EIGHTH, EIGHTH, EIGHTH, EIGHTH, EIGHTH, EIGHTH, EIGHTH, EIGHTH, WHOLE, EIGHTH, EIGHTH, EIGHTH, EIGHTH, EIGHTH, EIGHTH, EIGHTH, EIGHTH, EIGHTH, EIGHTH, EIGHTH, EIGHTH, EIGHTH, QUARTER+EIGHTH, EIGHTH, EIGHTH, EIGHTH, EIGHTH, EIGHTH, EIGHTH, EIGHTH, EIGHTH, EIGHTH, QUARTER+EIGHTH, EIGHTH, QUARTER+EIGHTH, EIGHTH, QUARTER, EIGHTH, QUARTER, EIGHTH, QUARTER, EIGHTH, EIGHTH, EIGHTH, EIGHTH, EIGHTH, EIGHTH, EIGHTH, QUARTER/3, QUARTER/3, QUARTER/3, QUARTER/3, QUARTER/3, QUARTER/3, EIGHTH, EIGHTH, EIGHTH, EIGHTH, EIGHTH, EIGHTH, EIGHTH, EIGHTH, EIGHTH, EIGHTH, QUARTER, EIGHTH, QUARTER, EIGHTH, QUARTER, EIGHTH, QUARTER, EIGHTH, EIGHTH, EIGHTH, EIGHTH, EIGHTH, EIGHTH, EIGHTH, QUARTER/3, QUARTER/3, QUARTER/3, QUARTER/3, QUARTER/3, QUARTER/3, EIGHTH, EIGHTH, EIGHTH, EIGHTH, EIGHTH, EIGHTH, EIGHTH, EIGHTH, EIGHTH, EIGHTH, QUARTER, EIGHTH, EIGHTH, EIGHTH, EIGHTH, QUARTER, EIGHTH, EIGHTH, EIGHTH, EIGHTH, EIGHTH, EIGHTH, EIGHTH, QUARTER+EIGHTH, QUARTER/3, QUARTER/3, QUARTER/3, QUARTER/3, QUARTER/3, QUARTER/3, QUARTER/3, QUARTER/3, QUARTER/3, QUARTER/3, QUARTER/3, QUARTER/3, EIGHTH, EIGHTH, EIGHTH, EIGHTH, EIGHTH, QUARTER+EIGHTH, EIGHTH, EIGHTH, EIGHTH, EIGHTH, QUARTER, EIGHTH, EIGHTH, EIGHTH, EIGHTH, EIGHTH, EIGHTH, EIGHTH, QUARTER+EIGHTH, EIGHTH, EIGHTH, EIGHTH, EIGHTH, QUARTER/3, QUARTER/3, QUARTER/3, QUARTER/3, QUARTER/3, QUARTER/3, EIGHTH, EIGHTH, EIGHTH, EIGHTH, EIGHTH, QUARTER+EIGHTH, EIGHTH, EIGHTH, EIGHTH, EIGHTH, QUARTER, EIGHTH, EIGHTH, EIGHTH, EIGHTH, EIGHTH, EIGHTH, EIGHTH, QUARTER+EIGHTH, QUARTER/3, QUARTER/3, QUARTER/3, QUARTER/3, QUARTER/3, QUARTER/3, QUARTER/3, QUARTER/3, QUARTER/3, QUARTER/3, QUARTER/3, QUARTER/3, EIGHTH, EIGHTH, EIGHTH, EIGHTH, EIGHTH, QUARTER+EIGHTH, EIGHTH, EIGHTH, EIGHTH, EIGHTH, QUARTER, EIGHTH, EIGHTH, EIGHTH, EIGHTH, EIGHTH, EIGHTH, EIGHTH, QUARTER+EIGHTH, EIGHTH, EIGHTH, EIGHTH, EIGHTH, QUARTER/3, QUARTER/3, QUARTER/3, QUARTER/3, QUARTER/3, QUARTER/3, EIGHTH, EIGHTH, EIGHTH, EIGHTH, EIGHTH, QUARTER+EIGHTH, EIGHTH, EIGHTH, EIGHTH, EIGHTH, EIGHTH, EIGHTH, EIGHTH, EIGHTH, EIGHTH, EIGHTH, EIGHTH, EIGHTH, EIGHTH, QUARTER+EIGHTH, EIGHTH, EIGHTH, EIGHTH, EIGHTH, EIGHTH, EIGHTH, EIGHTH, EIGHTH, WHOLE, EIGHTH, EIGHTH, EIGHTH, EIGHTH, EIGHTH, EIGHTH, EIGHTH, EIGHTH, EIGHTH, EIGHTH, EIGHTH, EIGHTH, EIGHTH, QUARTER+EIGHTH, EIGHTH, EIGHTH, EIGHTH, EIGHTH, EIGHTH, EIGHTH, EIGHTH, EIGHTH, EIGHTH, QUARTER+EIGHTH, EIGHTH, QUARTER+EIGHTH, EIGHTH, EIGHTH, EIGHTH, EIGHTH, QUARTER, EIGHTH, EIGHTH, EIGHTH, EIGHTH, EIGHTH, EIGHTH, EIGHTH, QUARTER+EIGHTH, QUARTER/3, QUARTER/3, QUARTER/3, QUARTER/3, QUARTER/3, QUARTER/3, QUARTER/3, QUARTER/3, QUARTER/3, QUARTER/3, QUARTER/3, QUARTER/3, EIGHTH, EIGHTH, EIGHTH, EIGHTH, EIGHTH, QUARTER+EIGHTH, EIGHTH, EIGHTH, EIGHTH, EIGHTH, QUARTER, EIGHTH, EIGHTH, EIGHTH, EIGHTH, EIGHTH, EIGHTH, EIGHTH, QUARTER+EIGHTH, EIGHTH, EIGHTH, EIGHTH, EIGHTH, QUARTER/3, QUARTER/3, QUARTER/3, QUARTER/3, QUARTER/3, QUARTER/3, EIGHTH, EIGHTH, EIGHTH, EIGHTH, EIGHTH, QUARTER+EIGHTH, EIGHTH, EIGHTH, EIGHTH, EIGHTH, QUARTER/3, QUARTER/3, QUARTER/3, QUARTER/3, QUARTER/3, QUARTER/3, QUARTER, EIGHTH, QUARTER, EIGHTH, QUARTER, QUARTER, QUARTER, QUARTER, QUARTER, QUARTER, QUARTER, HALF+WHOLE
};
